<svg width="1492" height="274" viewBox="0 0 1492 274" fill="none" xmlns="http://www.w3.org/2000/svg">
<g clip-path="url(#clip0_1295_4913)">
<path d="M1467.78 26.5264C1462.97 26.5163 1458.27 27.93 1454.28 30.5885C1450.28 33.2469 1447.16 37.0307 1445.31 41.4609C1443.47 45.8911 1442.98 50.7685 1443.91 55.4758C1444.84 60.1832 1447.15 64.5089 1450.54 67.9053C1453.93 71.3018 1458.26 73.6165 1462.97 74.5563C1467.68 75.4961 1472.56 75.0189 1477 73.185C1481.44 71.3511 1485.24 68.2429 1487.91 64.254C1490.57 60.265 1492 55.5746 1492 50.7762C1491.97 44.3639 1489.41 38.2229 1484.87 33.6838C1480.34 29.1448 1474.19 26.5732 1467.78 26.5264V26.5264ZM1467.78 70.3391C1457.58 70.3391 1449.44 62.086 1449.44 50.7762C1449.44 39.4664 1457.65 31.2134 1467.78 31.2134C1477.9 31.2134 1486.11 39.4155 1486.11 50.7762C1486.11 62.137 1477.98 70.3391 1467.78 70.3391ZM1478.82 44.994C1478.82 39.1862 1475.25 36.8937 1468.62 36.8937H1458.42V64.404H1463.52V52.6103H1466.55L1473.72 64.404H1478.94L1471.52 52.3555C1476.06 51.9734 1478.77 49.6809 1478.77 44.994H1478.82ZM1463.47 48.6875V40.8674H1467.93C1470.61 40.8674 1473.56 41.4024 1473.56 44.5609C1473.56 48.3309 1471.01 48.6875 1467.93 48.6875H1463.47Z" fill="#231F20"/>
<path d="M525.348 21.5586H625.611V46.0631H552.402V102.79H622.347V127.269H552.402V215.812H525.348V21.5586Z" fill="#231F20"/>
<path d="M743.723 210.005C734.008 213.52 722.865 219.149 700.196 219.149C651.288 219.149 628.798 188.582 628.798 142.35C628.798 100.295 654.45 70.5427 693.362 70.5427C739.261 70.5427 754.178 105.058 754.178 150.654H655.878C655.878 178.673 677.221 197.956 701.343 197.956C718.02 197.956 737.527 189.041 743.723 183.793V210.005ZM727.2 131.218C727.2 109.541 714.781 91.7104 692.929 91.7104C668.067 91.7104 657.765 112.853 655.878 131.218H727.2Z" fill="#231F20"/>
<path d="M866.962 195.663H866.426C859.669 206.209 843.936 219.047 819.329 219.047C777.714 219.047 760.196 180.838 760.196 142.248C760.196 104.039 779.703 70.4152 819.635 70.4152C843.681 70.4152 857.476 80.1712 865.355 93.3404H865.865V7.16699H891.365V215.812H867.064L866.962 195.663ZM825.347 197.854C854.008 197.854 865.865 168.637 865.865 145.024C865.865 118.584 852.555 91.5319 825.066 91.5319C797.578 91.5319 786.818 118.303 787.226 144.107C786.716 166.421 798.088 197.778 825.474 197.778" fill="#231F20"/>
<path d="M1015.85 210.005C1006.09 213.52 995.044 219.149 972.35 219.149C923.443 219.149 900.952 188.582 900.952 142.35C900.952 100.295 926.681 70.5427 965.567 70.5427C1011.47 70.5427 1026.33 105.058 1026.33 150.654H928.032C928.032 178.673 949.324 197.956 973.37 197.956C990.149 197.956 1009.63 189.041 1015.83 183.793L1015.85 210.005ZM999.43 131.218C999.43 109.541 987.038 91.7104 965.134 91.7104C940.272 91.7104 929.945 112.853 928.134 131.218H999.43Z" fill="#231F20"/>
<path d="M1037.42 73.9048H1061.29V95.8366H1061.83C1068.56 81.0881 1083.17 70.517 1097.76 70.517C1103.39 70.5061 1109.01 71.1732 1114.48 72.5038V95.8366C1110.01 94.0766 1105.24 93.2112 1100.43 93.2894C1077.79 93.2894 1062.85 115.578 1062.85 151.163V215.812H1037.35L1037.42 73.9048Z" fill="#231F20"/>
<path d="M1127.46 83.9158C1141.02 75.2869 1156.75 70.652 1172.83 70.5427C1212.32 70.5427 1228.26 90.6405 1228.26 129.129V188.022C1228.05 197.316 1228.42 206.614 1229.36 215.863H1205.57V197.447H1205.06C1200.28 204.299 1193.88 209.865 1186.43 213.652C1178.98 217.438 1170.7 219.326 1162.35 219.149C1132.59 219.149 1111.81 205.751 1111.81 174.878C1111.81 139.217 1149.62 128.136 1175.81 128.136C1185.88 128.136 1192.87 128.136 1202.89 128.671C1202.89 104.192 1194.24 91.7104 1168.8 91.7104C1154.2 91.7999 1140.09 96.8993 1128.81 106.153L1127.46 83.9158ZM1202.89 148.157C1197.48 148.157 1191.98 147.622 1186.65 147.622C1172.83 147.622 1138.78 149.839 1138.78 174.878C1138.78 189.907 1152.86 197.982 1164.46 197.982C1189.6 197.982 1202.89 181.883 1202.89 160.766V148.157Z" fill="#231F20"/>
<path d="M1322.86 95.0217H1286.4V172.738C1286.4 189.143 1296.14 198.007 1307.72 198.007C1313.85 198.147 1319.88 196.443 1325.03 193.116V215.277C1318.05 217.567 1310.78 218.87 1303.43 219.149C1277.17 219.149 1261 206.413 1261 177.96V95.0217H1229.92V73.905H1261V41.071L1286.5 32.665V73.905H1322.96L1322.86 95.0217Z" fill="#231F20"/>
<path d="M1438.81 210.005C1429.07 213.52 1418 219.149 1395.26 219.149C1346.37 219.149 1323.86 188.582 1323.86 142.35C1323.86 100.295 1349.54 70.5427 1388.5 70.5427C1434.4 70.5427 1449.26 105.058 1449.26 150.654H1350.96C1350.96 178.673 1372.31 197.956 1396.38 197.956C1413.13 197.956 1432.59 189.041 1438.81 183.793V210.005ZM1422.28 131.218C1422.28 109.541 1409.92 91.7104 1388.01 91.7104C1363.08 91.7104 1352.85 112.853 1350.96 131.218H1422.28Z" fill="#231F20"/>
<path d="M53.7639 11.6248C88.4429 11.6248 99.0251 15.2164 110.5 21.6609C129.624 32.232 139.926 51.0052 139.926 74.5418C139.926 101.568 126.998 123.245 104.66 133.842C95.2257 138.223 86.3775 140.592 63.7341 140.592H41.1162V215.812H-0.141602V11.6248H53.7639ZM41.0142 107.121H62.4337C79.2632 107.121 84.2865 105.032 89.7944 96.601C93.3133 90.9716 94.8942 85.0874 94.8942 75.3315C94.8942 56.3035 84.6945 44.7645 67.202 44.7645H41.1162L41.0142 107.121Z" fill="#231F20"/>
<path d="M197.885 24.0044C197.839 28.8088 196.365 33.4912 193.651 37.4575C190.936 41.4238 187.104 44.4952 182.639 46.2819C178.174 48.0687 173.279 48.4903 168.574 47.4932C163.869 46.4962 159.566 44.1254 156.212 40.6818C152.858 37.2381 150.604 32.8768 149.735 28.1512C148.866 23.4256 149.423 18.5487 151.333 14.1393C153.243 9.72997 156.422 5.98688 160.465 3.38501C164.509 0.783134 169.235 -0.560242 174.044 -0.474667C177.219 -0.448217 180.357 0.206176 183.278 1.45074C186.199 2.69531 188.844 4.50539 191.06 6.77653C193.277 9.04767 195.021 11.7349 196.193 14.683C197.364 17.6312 197.939 20.782 197.885 23.9535V24.0044ZM193.168 61.8056V215.812H153.772V68.0718L193.168 61.8056Z" fill="#231F20"/>
<path d="M246.41 61.6274C249.843 67.2968 251.757 73.7531 251.969 80.3752C257.558 76.3057 263.373 72.5552 269.385 69.1418C277.8 65.0632 287.011 62.8889 296.364 62.7737C313.142 62.7737 327.83 71.5362 332.547 84.5017C334.815 91.4058 335.8 98.666 335.454 105.924V215.812H296.695V118.024C296.695 100.982 293.712 95.9134 283.384 95.9134C275.505 95.9134 265.254 101.263 256.1 109.414V215.812H216.602V106.841C216.826 94.8746 215.104 82.9512 211.502 71.5362L246.41 61.6274Z" fill="#231F20"/>
<path d="M507.295 81.9033C503.687 85.5384 499.375 88.4004 494.622 90.3144C489.87 92.2283 484.776 93.154 479.653 93.0348C476.239 92.9604 472.832 92.6711 469.454 92.1687C475.309 98.9797 478.418 107.724 478.174 116.699C478.174 142.604 454.664 161.454 422.586 161.454C420.606 161.483 418.627 161.347 416.67 161.046C406.674 165.912 401.116 169.35 401.116 173.477C401.116 175.515 403.462 177.018 407.592 177.018L428.782 177.196C451.732 177.553 463.691 181.093 474.299 190.747C483.147 199.051 487.278 209.24 487.278 222.817C487.46 228.545 486.486 234.25 484.414 239.593C482.341 244.937 479.214 249.809 475.217 253.919C461.982 268.107 439.314 273.329 415.752 273.329C394.358 273.329 372.25 269.839 358.71 257.154C354.86 253.845 351.771 249.745 349.654 245.133C347.538 240.521 346.443 235.507 346.445 230.433C346.236 225.12 347.441 219.846 349.939 215.15H386.454C385.041 218.173 384.393 221.497 384.567 224.829C384.567 236.929 394.613 243.399 412.845 243.399C422.867 243.399 431.409 242.202 437.58 238.304C440.391 236.819 442.767 234.63 444.474 231.95C446.182 229.271 447.163 226.194 447.32 223.021C447.32 209.47 435.259 205.343 419.654 205.19L402.824 204.808C385.255 204.477 373.806 203.101 366.717 200.223C359.628 197.345 355.217 190.722 355.217 180.558C355.217 170.395 358.149 161.709 382.858 155.213C361.082 149.711 350.5 135.829 350.5 113.515C350.5 82.642 375.54 62.5697 414.044 62.5697C423.178 62.7053 432.259 63.989 441.073 66.3906C447.113 68.1846 453.344 69.2618 459.636 69.6001C471.263 69.2865 482.363 64.6863 490.797 56.6855L507.295 81.9033ZM390.202 113.846C390.202 129.129 399.637 135.319 413.483 135.319C429.088 135.319 437.58 127.677 437.58 113.846C437.58 100.014 428.782 91.5065 413.738 91.5065C398.693 91.5065 390.202 99.7595 390.202 113.846" fill="#231F20"/>
</g>
<defs>
<clipPath id="clip0_1295_4913">
<rect width="1492" height="274" fill="white"/>
</clipPath>
</defs>
</svg>
